<?xml version="1.0" encoding="iso-8859-1"?>
<!-- Generator: Adobe Illustrator 22.0.0, SVG Export Plug-In . SVG Version: 6.00 Build 0)  -->
<svg version="1.1" id="Layer_1" xmlns="http://www.w3.org/2000/svg" xmlns:xlink="http://www.w3.org/1999/xlink" x="0px" y="0px"
	 viewBox="0 0 1200 800" style="enable-background:new 0 0 1200 800;" xml:space="preserve">
<g>
	<path style="fill:#FCF1DF;" d="M599.997,224.663c-13.251,0-25.711,5.163-35.079,14.532c-9.369,9.369-14.532,21.828-14.532,35.079
		s5.163,25.711,14.532,35.079c9.369,9.369,21.828,14.532,35.079,14.532c13.251,0,25.711-5.163,35.079-14.532l0,0
		c9.369-9.369,14.532-21.828,14.532-35.079s-5.163-25.711-14.532-35.079C625.708,229.826,613.248,224.663,599.997,224.663z
		 M621.703,274.269c-0.003,5.803-2.254,11.246-6.358,15.351l0,0c-4.098,4.098-9.548,6.355-15.345,6.352
		c-5.8,0.005-11.246-2.254-15.348-6.355c-4.098-4.098-6.36-9.548-6.355-15.348c-0.003-5.798,2.254-11.248,6.352-15.345
		c4.098-4.098,9.548-6.355,15.351-6.358C611.965,252.566,621.7,262.302,621.703,274.269z"/>
	<g>
		<path style="fill:#FCF1DF;" d="M542.445,707.006c-2.526,2.526-6.011,4.087-9.865,4.087c-7.705-0.002-13.953-6.248-13.953-13.953
			l0.002-114.1c-0.002-7.705,6.246-13.953,13.953-13.953s13.953,6.246,13.953,13.953v114.099
			C546.532,700.994,544.972,704.479,542.445,707.006z"/>
	</g>
	<g>
		<path style="fill:#FCF1DF;" d="M609.867,748.917C607.343,751.44,603.853,753,600,753c-7.709,0.002-13.952-6.243-13.95-13.95
			V620.12c0-7.707,6.245-13.952,13.952-13.952c7.707,0,13.953,6.246,13.953,13.953v118.926
			C613.954,742.901,612.394,746.389,609.867,748.917z"/>
	</g>
	<g>
		<path style="fill:#FCF1DF;" d="M677.284,707.006c-2.524,2.524-6.011,4.087-9.86,4.088c-7.709,0.002-13.955-6.246-13.953-13.953
			V583.037c0-7.702,6.245-13.952,13.952-13.952c7.707,0,13.953,6.246,13.953,13.953l0.003,114.102
			C681.374,700.992,679.811,704.479,677.284,707.006z"/>
	</g>
	<path style="fill:#FCF1DF;" d="M600,47c-4.477-0.003-8.689,2.148-11.309,5.776c-0.959,1.329-23.818,33.169-46.843,84.672
		c-13.51,30.214-24.278,60.986-32.005,91.463c-9.494,37.43-14.395,74.524-14.599,110.302l-60.007,89.018
		c-1.548,2.3-2.377,5.007-2.382,7.778l-0.216,134.794c-0.012,6.141,3.996,11.565,9.865,13.363
		c5.003,1.531,10.354,0.125,13.952-3.472c0.626-0.626,1.197-1.317,1.711-2.069l61.316-90.97
		c4.769,14.685,10.226,29.418,16.386,44.186c2.168,5.196,7.249,8.581,12.877,8.581l37.305-0.002v34.659
		c0,7.707,6.246,13.953,13.953,13.953c3.854,0,7.339-1.563,9.867-4.09c2.524-2.524,4.087-6.011,4.087-9.863v-34.659h37.305
		c3.777-0.003,7.303-1.52,9.87-4.087c1.263-1.264,2.293-2.783,3.009-4.494c6.162-14.768,11.617-29.501,16.385-44.178l61.324,90.961
		c3.432,5.089,9.786,7.341,15.654,5.542c2.24-0.686,4.2-1.896,5.776-3.472c2.562-2.562,4.093-6.091,4.085-9.89l-0.216-134.794
		c-0.003-2.77-0.834-5.478-2.382-7.778L704.76,339.22c-0.208-35.782-5.102-72.882-14.596-110.312
		c-7.732-30.477-18.502-61.247-32.008-91.466C635.124,85.94,612.27,54.105,611.313,52.77C608.683,49.148,604.475,47,600,47z
		 M460.615,525.057l0.137-84.751l36.776-54.557c2.28,22.087,6.241,44.422,11.876,66.927L460.615,525.057z M739.246,440.307
		l0.137,84.751l-48.79-72.377c5.643-22.509,9.599-44.837,11.879-66.931L739.246,440.307z M632.968,149.498
		c20.026,44.946,43.901,114.753,43.907,192.078c-0.003,35.594-4.906,72.138-14.614,109.24c-0.208,0.623-0.381,1.269-0.495,1.917
		c-5.265,19.791-11.899,39.738-19.885,59.784l-27.928-0.002l0.003-56.364c0-7.707-6.246-13.953-13.953-13.953
		s-13.953,6.246-13.955,13.955l-0.002,56.364h-27.925c-7.987-20.049-14.623-39.997-19.886-59.794
		c-0.117-0.646-0.288-1.276-0.493-1.897c-9.71-37.105-14.616-73.653-14.618-109.255c0.003-77.321,23.876-147.127,43.907-192.073
		c12.166-27.313,24.435-49.024,32.964-62.966C608.523,100.477,620.798,122.19,632.968,149.498z"/>
</g>
<g>
</g>
<g>
</g>
<g>
</g>
<g>
</g>
<g>
</g>
<g>
</g>
<g>
</g>
<g>
</g>
<g>
</g>
<g>
</g>
<g>
</g>
<g>
</g>
<g>
</g>
<g>
</g>
<g>
</g>
</svg>
